<svg width="18" height="15" viewBox="0 0 18 15" fill="none" xmlns="http://www.w3.org/2000/svg">
<path fill-rule="evenodd" clip-rule="evenodd" d="M9.23178 0.0605728C7.78428 0.0123679 6.32184 0.407286 5.05923 1.25008C3.64115 2.19766 2.65012 3.59695 2.19364 5.16124C2.06759 5.14585 1.91663 5.15264 1.73739 5.20333C1.06818 5.39321 0.564861 5.94157 0.338547 6.42452C0.045018 7.0539 -0.0787758 7.88628 0.0518073 8.7456C0.181485 9.6022 0.543361 10.3083 0.995989 10.7467C1.44998 11.1853 1.96258 11.3278 2.47178 11.2208C3.22993 11.059 3.60584 10.9379 3.4997 10.2316L2.98574 6.80767C3.08939 4.95461 4.04874 3.21018 5.65331 2.13746C7.80102 0.702852 10.6168 0.794735 12.6654 2.36739C14.0905 3.46004 14.9179 5.09719 15.0134 6.81582L14.654 9.2109C13.8524 11.4046 11.8652 12.924 9.56559 13.1397H8.03436C7.63921 13.1397 7.32101 13.4579 7.32101 13.8526V14.2287C7.32101 14.6237 7.63921 14.9418 8.03436 14.9418H9.96504C10.36 14.9418 10.6768 14.6237 10.6768 14.2287V14.0321C12.4108 13.6089 13.9244 12.5431 14.91 11.0569L15.5285 11.221C16.0318 11.3516 16.5506 11.1853 17.0043 10.7469C17.4569 10.3083 17.8186 9.60242 17.9485 8.74582C18.0795 7.88651 17.9521 7.05549 17.662 6.42475C17.3707 5.79401 16.9369 5.39344 16.436 5.24973C16.2262 5.1893 15.9986 5.16712 15.8033 5.16124C15.3905 3.74677 14.5407 2.46041 13.3158 1.5212C12.1116 0.597163 10.6793 0.108099 9.23178 0.0605728Z" fill="#394EF4"/>
<path fill-rule="evenodd" clip-rule="evenodd" d="M11.4934 6.22062C12.0038 6.22062 12.4175 6.63432 12.4186 7.14602C12.4175 7.65636 12.0038 8.07119 11.4934 8.07119C10.9817 8.07119 10.5669 7.65636 10.5669 7.14602C10.5669 6.63455 10.982 6.22062 11.4934 6.22062ZM9.00171 6.22062C9.51318 6.22062 9.92688 6.63432 9.92688 7.14602C9.92688 7.65636 9.51318 8.07119 9.00171 8.07119C8.48979 8.07119 8.07609 7.65636 8.07609 7.14602C8.07609 6.63455 8.48979 6.22062 9.00171 6.22062ZM6.5109 6.22062C7.02124 6.22062 7.43607 6.63432 7.43607 7.14602C7.43607 7.65636 7.02124 8.07119 6.5109 8.07119C5.99943 8.07119 5.5855 7.65636 5.5855 7.14602C5.5855 6.63455 5.99943 6.22062 6.5109 6.22062ZM9.00171 2.24609C6.28821 2.24609 4.10156 4.36077 4.10156 7.14602C4.10156 8.48376 4.60737 9.66602 5.43138 10.5335L5.13899 11.8443C5.04258 12.2757 5.34176 12.5658 5.72944 12.3499L7.00947 11.6359C7.6178 11.9 8.29063 12.0459 9.00171 12.0459C11.7161 12.0459 13.9014 9.93262 13.9014 7.14602C13.9014 4.36077 11.7161 2.24609 9.00171 2.24609Z" fill="#394EF4"/>
</svg>
