<svg width="26" height="26" viewBox="0 0 26 26" fill="none" xmlns="http://www.w3.org/2000/svg">
<path d="M7.59082 13C7.59082 12.7845 7.67642 12.5779 7.8288 12.4255C7.98117 12.2731 8.18783 12.1875 8.40332 12.1875H12.1874V8.40344C12.1874 8.18795 12.273 7.98129 12.4254 7.82892C12.5778 7.67654 12.7844 7.59094 12.9999 7.59094C13.2154 7.59094 13.4221 7.67654 13.5744 7.82892C13.7268 7.98129 13.8124 8.18795 13.8124 8.40344V12.1875H17.5965C17.812 12.1875 18.0186 12.2731 18.171 12.4255C18.3234 12.5779 18.409 12.7845 18.409 13C18.409 13.2155 18.3234 13.4222 18.171 13.5745C18.0186 13.7269 17.812 13.8125 17.5965 13.8125H13.8124V17.5966C13.8124 17.8121 13.7268 18.0188 13.5744 18.1711C13.4221 18.3235 13.2154 18.4091 12.9999 18.4091C12.7844 18.4091 12.5778 18.3235 12.4254 18.1711C12.273 18.0188 12.1874 17.8121 12.1874 17.5966V13.8125H8.40332C8.18783 13.8125 7.98117 13.7269 7.8288 13.5745C7.67642 13.4222 7.59082 13.2155 7.59082 13Z" fill="#1A73E8"/>
<path fill-rule="evenodd" clip-rule="evenodd" d="M7.92664 4.08309C11.2985 3.70928 14.7013 3.70928 18.0731 4.08309C20.0524 4.30409 21.6503 5.86301 21.8821 7.85309C22.283 11.2732 22.283 14.7279 21.8821 18.148C21.6492 20.1381 20.0513 21.6959 18.0731 21.918C14.7013 22.2918 11.2985 22.2918 7.92664 21.918C5.94739 21.6959 4.34947 20.1381 4.11764 18.148C3.7186 14.728 3.7186 11.2731 4.11764 7.85309C4.34947 5.86301 5.94847 4.30409 7.92664 4.08309ZM17.8933 5.69726C14.641 5.33676 11.3588 5.33676 8.10647 5.69726C7.5044 5.76405 6.94243 6.03187 6.51135 6.45745C6.08026 6.88303 5.80525 7.44151 5.73072 8.04268C5.34541 11.3371 5.34541 14.6651 5.73072 17.9595C5.80547 18.5605 6.08059 19.1187 6.51165 19.5441C6.94272 19.9694 7.50456 20.2371 8.10647 20.3038C11.3316 20.6635 14.6682 20.6635 17.8933 20.3038C18.495 20.2369 19.0566 19.9691 19.4875 19.5438C19.9183 19.1184 20.1933 18.5603 20.268 17.9595C20.6533 14.6651 20.6533 11.3371 20.268 8.04268C20.193 7.44207 19.918 6.88421 19.4872 6.45909C19.0563 6.03396 18.4949 5.76635 17.8933 5.69943" fill="#1A73E8"/>
</svg>
