<svg width="26" height="26" viewBox="0 0 26 26" fill="none" xmlns="http://www.w3.org/2000/svg">
<path d="M11.1549 3.25C10.9714 3.25 10.7954 3.32294 10.6657 3.45277C10.5359 3.58261 10.463 3.7587 10.463 3.94231V4.63462H6.54203C6.35852 4.63462 6.18252 4.70755 6.05276 4.83739C5.923 4.96722 5.8501 5.14331 5.8501 5.32692C5.8501 5.51053 5.923 5.68663 6.05276 5.81646C6.18252 5.94629 6.35852 6.01923 6.54203 6.01923H19.4582C19.6417 6.01923 19.8177 5.94629 19.9474 5.81646C20.0772 5.68663 20.1501 5.51053 20.1501 5.32692C20.1501 5.14331 20.0772 4.96722 19.9474 4.83739C19.8177 4.70755 19.6417 4.63462 19.4582 4.63462H15.5372V3.94231C15.5372 3.7587 15.4643 3.58261 15.3345 3.45277C15.2048 3.32294 15.0288 3.25 14.8453 3.25H11.1549ZM11.1549 11.0038C11.3384 11.0038 11.5144 11.0768 11.6442 11.2066C11.774 11.3365 11.8469 11.5125 11.8469 11.6962V18.1577C11.8469 18.3413 11.774 18.5174 11.6442 18.6472C11.5144 18.7771 11.3384 18.85 11.1549 18.85C10.9714 18.85 10.7954 18.7771 10.6657 18.6472C10.5359 18.5174 10.463 18.3413 10.463 18.1577V11.6962C10.463 11.5125 10.5359 11.3365 10.6657 11.2066C10.7954 11.0768 10.9714 11.0038 11.1549 11.0038ZM15.5372 11.6962C15.5372 11.5125 15.4643 11.3365 15.3345 11.2066C15.2048 11.0768 15.0288 11.0038 14.8453 11.0038C14.6617 11.0038 14.4858 11.0768 14.356 11.2066C14.2262 11.3365 14.1533 11.5125 14.1533 11.6962V18.1577C14.1533 18.3413 14.2262 18.5174 14.356 18.6472C14.4858 18.7771 14.6617 18.85 14.8453 18.85C15.0288 18.85 15.2048 18.7771 15.3345 18.6472C15.4643 18.5174 15.5372 18.3413 15.5372 18.1577V11.6962Z" fill="#F95555"/>
<path fill-rule="evenodd" clip-rule="evenodd" d="M7.57597 8.4257C7.59442 8.25355 7.67332 8.09452 7.79756 7.97906C7.92181 7.86361 8.08266 7.79985 8.24933 7.79999H17.7503C17.917 7.79985 18.0778 7.86361 18.2021 7.97906C18.3263 8.09452 18.4052 8.25355 18.4236 8.4257L18.6042 10.1162C18.9318 13.1791 18.9318 16.2701 18.6042 19.334L18.5861 19.5C18.5233 20.0912 18.2726 20.6437 17.8737 21.0701C17.4748 21.4966 16.9505 21.7727 16.3837 21.8546C14.1388 22.1818 11.8609 22.1818 9.61589 21.8546C9.04909 21.7727 8.52477 21.4966 8.12588 21.0701C7.72699 20.6437 7.47631 20.0912 7.4135 19.5L7.39545 19.334C7.06805 16.2708 7.06805 13.1793 7.39545 10.1162L7.57597 8.4257ZM8.85498 9.20714L8.74125 10.2709C8.42488 13.2309 8.42488 16.2182 8.74125 19.1782L8.75931 19.3443C8.78872 19.6248 8.90745 19.8871 9.09665 20.0895C9.28585 20.2919 9.53467 20.4229 9.80364 20.4615C11.9248 20.7702 14.0757 20.7702 16.196 20.4615C16.4648 20.4229 16.7135 20.2921 16.9027 20.0899C17.0919 19.8877 17.2107 19.6256 17.2403 19.3452L17.2584 19.1782C17.5743 16.2185 17.5743 13.2307 17.2584 10.2709L17.1446 9.20714H8.85498Z" fill="#F95555"/>
</svg>
