<svg width="24" height="24" viewBox="0 0 24 24" fill="none" xmlns="http://www.w3.org/2000/svg">
<path d="M6.5 6.5L1 12L6.5 17.5" stroke="black" stroke-width="2" stroke-linecap="round" stroke-linejoin="round"/>
<path d="M17.5 6.5L23 12L17.5 17.5" stroke="black" stroke-width="2" stroke-linecap="round" stroke-linejoin="round"/>
<path d="M13.2055 11.45L15.6364 13.8809C16.1212 14.3657 16.1212 15.1516 15.6364 15.6364C15.1516 16.1212 14.3657 16.1212 13.8809 15.6364L13.2055 14.961M12.5 13.2555L10.1191 15.6364C9.63432 16.1212 8.84835 16.1212 8.36358 15.6364C7.87881 15.1516 7.87881 14.3657 8.36358 13.8809C8.65733 13.5872 8.84957 13.3949 9.1 13.1445M10.6445 12.4L8.36358 10.1191C7.87881 9.63432 7.87881 8.84835 8.36358 8.36358C8.84835 7.87881 9.63432 7.87881 10.1191 8.36358C10.3529 8.59736 10.5153 8.75975 10.7055 8.95M11.5945 10.65C12.4146 9.82993 12.9734 9.27111 13.8809 8.36358C14.3657 7.87881 15.1516 7.87881 15.6364 8.36358C16.1212 8.84835 16.1212 9.63432 15.6364 10.1191L15 10.7555" stroke="black" stroke-width="1.5"/>
</svg>
