<svg width="20" height="20" viewBox="0 0 20 20" fill="none" xmlns="http://www.w3.org/2000/svg">
<g clip-path="url(#clip0_132_145)">
<g clip-path="url(#clip1_132_145)">
<path d="M17.7 2.19995V17.7H2.20001V2.19995H17.7ZM18.64 0.199951H1.26001C0.97969 0.202559 0.711588 0.315075 0.513362 0.513301C0.315136 0.711527 0.20262 0.979629 0.200012 1.25995L0.200012 18.64C0.20262 18.9203 0.315136 19.1884 0.513362 19.3866C0.711588 19.5848 0.97969 19.6973 1.26001 19.7H18.64C18.9203 19.6973 19.1884 19.5848 19.3867 19.3866C19.5849 19.1884 19.6974 18.9203 19.7 18.64V1.25995C19.6974 0.979629 19.5849 0.711527 19.3867 0.513301C19.1884 0.315075 18.9203 0.202559 18.64 0.199951Z" fill="#9AA0A5"/>
<path d="M5.54001 4.86986L5.20001 5.19986L5.61001 5.61986L5.99001 5.23986L6.05001 5.19986L6.46001 4.78986L6.56001 4.68986L7.30001 3.94986C7.3337 3.91495 7.3741 3.88721 7.41878 3.86831C7.46346 3.8494 7.5115 3.83973 7.56001 3.83986C7.65456 3.84226 7.74436 3.88177 7.81001 3.94986C7.84357 3.9833 7.8702 4.02304 7.88837 4.0668C7.90654 4.11056 7.9159 4.15747 7.9159 4.20486C7.9159 4.25224 7.90654 4.29915 7.88837 4.34291C7.8702 4.38667 7.84357 4.42641 7.81001 4.45986L7.12001 5.19986L7.53001 5.61986L8.27001 4.86986C8.43585 4.6861 8.52765 4.44738 8.52765 4.19986C8.52765 3.95233 8.43585 3.71361 8.27001 3.52986C8.08626 3.36402 7.84753 3.27222 7.60001 3.27222C7.35249 3.27222 7.11376 3.36402 6.93001 3.52986L6.18001 4.26986L6.09001 4.35986L5.68001 4.77986L5.54001 4.86986Z" fill="#F94E38"/>
<path d="M6.56002 6.62984L6.93002 6.25984L6.52002 5.83984L6.14002 6.19984L6.05002 6.28984L5.64002 6.69984L5.54002 6.79984L4.80002 7.53984C4.76657 7.57341 4.72683 7.60003 4.68307 7.6182C4.63931 7.63637 4.5924 7.64573 4.54502 7.64573C4.49764 7.64573 4.45072 7.63637 4.40696 7.6182C4.3632 7.60003 4.32346 7.57341 4.29002 7.53984V7.48984C4.21473 7.43553 4.16334 7.35423 4.14657 7.26293C4.1298 7.17162 4.14895 7.07737 4.20002 6.99984L4.94002 6.25984L4.53002 5.83984L3.79002 6.58984C3.62418 6.77359 3.53238 7.01232 3.53238 7.25984C3.53238 7.50737 3.62418 7.74609 3.79002 7.92984C3.87755 8.01861 3.98186 8.08908 4.09689 8.13715C4.21191 8.18522 4.33535 8.20993 4.46002 8.20984C4.59344 8.22702 4.729 8.21441 4.85696 8.17291C4.98491 8.13141 5.10208 8.06206 5.20002 7.96984L5.96002 7.19984L6.05002 7.10984L6.46002 6.68984L6.56002 6.62984Z" fill="#F94E38"/>
<path d="M7.53001 5.83983L7.44001 5.74983L7.02001 5.33983L6.93001 5.19983L6.56001 4.82983L6.14001 5.23983L6.52001 5.61983L6.61001 5.70983L7.02001 6.19983L7.12001 6.29983L7.86001 7.03983C7.89358 7.07328 7.92021 7.11302 7.93838 7.15678C7.95655 7.20054 7.9659 7.24745 7.9659 7.29483C7.9659 7.34221 7.95655 7.38913 7.93838 7.43289C7.92021 7.47665 7.89358 7.51639 7.86001 7.54983V7.59983C7.82657 7.6334 7.78683 7.66002 7.74307 7.67819C7.69931 7.69636 7.6524 7.70572 7.60501 7.70572C7.55763 7.70572 7.51072 7.69636 7.46696 7.67819C7.4232 7.66002 7.38346 7.6334 7.35001 7.59983L6.61001 6.85983L6.14001 7.19983L6.89001 7.93983C6.97649 8.03 7.08061 8.10139 7.19588 8.14956C7.31114 8.19773 7.4351 8.22165 7.56001 8.21983C7.79725 8.22025 8.02587 8.13094 8.20001 7.96983C8.36585 7.78608 8.45765 7.54736 8.45765 7.29983C8.45765 7.05231 8.36585 6.81358 8.20001 6.62983L7.53001 5.83983Z" fill="#F94E38"/>
<path d="M4.57003 5.65986L4.66003 5.74986L5.08003 6.19986L5.17003 6.29986L5.54003 6.66986L5.96003 6.19986L5.58003 5.81986L5.49003 5.72986L5.08003 5.31986L4.98003 5.19986L4.20003 4.49986C4.16646 4.46641 4.13983 4.42667 4.12166 4.38291C4.10349 4.33915 4.09414 4.29224 4.09414 4.24486C4.09414 4.19747 4.10349 4.15056 4.12166 4.1068C4.13983 4.06304 4.16646 4.0233 4.20003 3.98986C4.26567 3.92177 4.35548 3.88226 4.45003 3.87986C4.49854 3.87973 4.54658 3.8894 4.59126 3.90831C4.63594 3.92721 4.67634 3.95495 4.71003 3.98986L5.45003 4.72986L5.87003 4.31986L5.20003 3.52986C5.01627 3.36402 4.77755 3.27222 4.53003 3.27222C4.2825 3.27222 4.04378 3.36402 3.86003 3.52986C3.69419 3.71361 3.60239 3.95233 3.60239 4.19986C3.60239 4.44738 3.69419 4.6861 3.86003 4.86986L4.57003 5.65986Z" fill="#F94E38"/>
<path d="M16.73 15.1999L12.73 9.52988L12.2 8.68988C12.1509 8.60017 12.0786 8.52533 11.9906 8.4732C11.9026 8.42106 11.8023 8.39355 11.7 8.39355C11.5977 8.39355 11.4974 8.42106 11.4094 8.4732C11.3214 8.52533 11.2491 8.60017 11.2 8.68988C10.4 9.85988 9.56 11.0199 8.73 12.1999L7.41 10.5399C7.16 10.2199 6.72 10.3999 6.53 10.6499L3.59 14.4899L3.2 15.0299C3.16224 15.0935 3.13745 15.1639 3.12707 15.2372C3.11668 15.3104 3.12091 15.385 3.13951 15.4566C3.1581 15.5282 3.1907 15.5954 3.23541 15.6543C3.28012 15.7132 3.33606 15.7627 3.4 15.7999C3.46555 15.8397 3.53834 15.8661 3.61417 15.8776C3.68999 15.8891 3.76734 15.8854 3.84174 15.8668C3.91614 15.8482 3.98611 15.815 4.04761 15.7692C4.1091 15.7234 4.1609 15.6658 4.2 15.5999L7.07 11.8399L8.07 13.1299L7.2 14.3699L6.58 15.1999C6.16 15.7899 7.13 16.3499 7.58 15.7699L11.65 10.0799L11.74 9.95988L15.21 14.9599L15.78 15.7899C16.2 16.3499 17.14 15.7799 16.73 15.1999Z" fill="#F94E38"/>
</g>
</g>
<defs>
<clipPath id="clip0_132_145">
<rect width="20" height="20" fill="white"/>
</clipPath>
<clipPath id="clip1_132_145">
<rect width="19.5" height="19.5" fill="white" transform="translate(0.200012 0.199951)"/>
</clipPath>
</defs>
</svg>
