<svg width="20" height="20" viewBox="0 0 20 20" fill="none" xmlns="http://www.w3.org/2000/svg">
<path d="M7.50065 10.8332H12.5007M7.50065 14.1665H10.0007M3.33398 3.33317V16.6665C3.33398 17.1085 3.50958 17.5325 3.82214 17.845C4.1347 18.1576 4.55862 18.3332 5.00065 18.3332H15.0007C15.4427 18.3332 15.8666 18.1576 16.1792 17.845C16.4917 17.5325 16.6673 17.1085 16.6673 16.6665V6.9515C16.6673 6.72947 16.6229 6.50968 16.5367 6.30504C16.4506 6.1004 16.3244 5.91504 16.1657 5.75984L12.4657 2.1415C12.1543 1.83705 11.7361 1.66656 11.3007 1.6665H5.00065C4.55862 1.6665 4.1347 1.8421 3.82214 2.15466C3.50958 2.46722 3.33398 2.89114 3.33398 3.33317Z" stroke="black" stroke-width="1.5" stroke-linecap="round" stroke-linejoin="round"/>
<path d="M11.668 1.6665V4.99984C11.668 5.44186 11.8436 5.86579 12.1561 6.17835C12.4687 6.49091 12.8926 6.6665 13.3346 6.6665H16.668" stroke="black" stroke-width="1.5" stroke-linejoin="round"/>
</svg>
