<svg width="16" height="16" viewBox="0 0 16 16" fill="none" xmlns="http://www.w3.org/2000/svg">
<path d="M6.41392 5H4.83325C4.0376 5 3.27454 5.31607 2.71193 5.87868C2.14932 6.44129 1.83325 7.20435 1.83325 8C1.83325 8.79565 2.14932 9.55871 2.71193 10.1213C3.27454 10.6839 4.0376 11 4.83325 11H6.41392M9.58592 5H11.1666C11.5606 5 11.9507 5.0776 12.3146 5.22836C12.6786 5.37913 13.0093 5.6001 13.2879 5.87868C13.5665 6.15726 13.7875 6.48797 13.9382 6.85195C14.089 7.21593 14.1666 7.60603 14.1666 8C14.1666 8.39397 14.089 8.78407 13.9382 9.14805C13.7875 9.51203 13.5665 9.84274 13.2879 10.1213C13.0093 10.3999 12.6786 10.6209 12.3146 10.7716C11.9507 10.9224 11.5606 11 11.1666 11H9.58592M4.82859 8H11.1713" stroke="#1A73E8" stroke-width="1.5" stroke-linecap="round" stroke-linejoin="round"/>
</svg>
