<svg width="25" height="25" viewBox="0 0 25 25" fill="none" xmlns="http://www.w3.org/2000/svg">
<circle cx="12.5" cy="12.5" r="12.5" fill="#FFB700"/>
<g clip-path="url(#clip0_30_531)">
<path d="M12.507 5.00001C13.6214 5.00365 14.5209 5.82375 14.4788 6.84768C14.4507 7.53091 14.3535 8.21195 14.2806 8.89336C14.1731 9.91256 14.06 10.9318 13.9514 11.951C13.8439 12.9582 13.7452 13.9661 13.6297 14.9722C13.5695 15.4978 13.1757 15.849 12.6157 15.9113C12.1659 15.9612 11.7269 15.718 11.5385 15.3467C11.4215 15.1163 11.3851 14.8586 11.3628 14.6053C11.2681 13.5133 11.1181 12.4213 10.996 11.3311C10.8678 10.1857 10.7402 9.0403 10.6133 7.89491C10.5847 7.62409 10.553 7.35291 10.5161 7.08209C10.3646 5.9577 11.2831 4.99601 12.507 5.00001Z" fill="#38363C"/>
<path d="M14.4999 19.1808C14.4979 19.5402 14.3797 19.8909 14.1604 20.1886C13.9412 20.4864 13.6306 20.7177 13.268 20.8533C12.9054 20.989 12.5072 21.0229 12.1236 20.9507C11.74 20.8786 11.3884 20.7036 11.1132 20.448C10.838 20.1923 10.6517 19.8675 10.5777 19.5146C10.5037 19.1617 10.5454 18.7966 10.6975 18.4655C10.8497 18.1344 11.1054 17.8521 11.4324 17.6545C11.7594 17.4568 12.1429 17.3526 12.5344 17.355C12.7942 17.3561 13.0512 17.4042 13.2907 17.4966C13.5302 17.589 13.7475 17.7238 13.9301 17.8935C14.1127 18.0631 14.257 18.2641 14.3548 18.485C14.4526 18.7059 14.5019 18.9424 14.4999 19.1808Z" fill="#38363C"/>
</g>
<defs>
<clipPath id="clip0_30_531">
<rect width="4" height="16" fill="white" transform="translate(10.5 5)"/>
</clipPath>
</defs>
</svg>
