<svg width="27" height="25" viewBox="0 0 27 25" fill="none" xmlns="http://www.w3.org/2000/svg">
<path d="M25.6319 2.25637H12.0941C11.8192 1.59158 11.3398 1.02087 10.7186 0.618618C10.0973 0.216365 9.36287 0.0012207 8.61103 0.0012207C7.85918 0.0012207 7.12477 0.216365 6.5035 0.618618C5.88222 1.02087 5.4029 1.59158 5.12799 2.25637H1.36811C1.00526 2.25637 0.657279 2.3933 0.400709 2.63704C0.144139 2.88078 0 3.21136 0 3.55606C0 3.90076 0.144139 4.23134 0.400709 4.47508C0.657279 4.71882 1.00526 4.85575 1.36811 4.85575H5.12799C5.4029 5.52054 5.88222 6.09125 6.5035 6.4935C7.12477 6.89575 7.85918 7.1109 8.61103 7.1109C9.36287 7.1109 10.0973 6.89575 10.7186 6.4935C11.3398 6.09125 11.8192 5.52054 12.0941 4.85575H25.6319C25.9947 4.85575 26.3427 4.71882 26.5993 4.47508C26.8559 4.23134 27 3.90076 27 3.55606C27 3.21136 26.8559 2.88078 26.5993 2.63704C26.3427 2.3933 25.9947 2.25637 25.6319 2.25637ZM8.61103 5.19979C8.20049 5.20041 7.80306 5.06257 7.48951 4.81081C7.17597 4.55905 6.96669 4.20973 6.89894 3.82507C6.8312 3.44041 6.90939 3.04539 7.1196 2.71039C7.3298 2.37538 7.65836 2.12215 8.04675 1.99579C8.43514 1.86943 8.85814 1.87815 9.24039 2.02041C9.62265 2.16266 9.93933 2.42921 10.134 2.77257C10.3287 3.11592 10.3888 3.51379 10.3035 3.89529C10.2183 4.2768 9.99324 4.61716 9.6685 4.85575C9.36607 5.07893 8.99398 5.19999 8.61103 5.19979Z" fill="#007AFF"/>
<path d="M25.6319 20.1453H14.79C14.5151 19.4805 14.0358 18.9098 13.4145 18.5075C12.7933 18.1053 12.0589 17.8901 11.307 17.8901C10.5552 17.8901 9.82075 18.1053 9.19947 18.5075C8.5782 18.9098 8.09888 19.4805 7.82396 20.1453H1.36811C1.00526 20.1453 0.657279 20.2822 0.400709 20.526C0.144139 20.7697 0 21.1003 0 21.445C0 21.7897 0.144139 22.1203 0.400709 22.364C0.657279 22.6077 1.00526 22.7447 1.36811 22.7447H7.82396C8.09888 23.4095 8.5782 23.9802 9.19947 24.3824C9.82075 24.7847 10.5552 24.9998 11.307 24.9998C12.0589 24.9998 12.7933 24.7847 13.4145 24.3824C14.0358 23.9802 14.5151 23.4095 14.79 22.7447H25.6319C25.9947 22.7447 26.3427 22.6077 26.5993 22.364C26.8559 22.1203 27 21.7897 27 21.445C27 21.1003 26.8559 20.7697 26.5993 20.526C26.3427 20.2822 25.9947 20.1453 25.6319 20.1453ZM11.307 23.0887C10.8965 23.0893 10.499 22.9515 10.1855 22.6997C9.87195 22.448 9.66267 22.0986 9.59492 21.714C9.52718 21.3293 9.60537 20.9343 9.81557 20.5993C10.0258 20.2643 10.3543 20.0111 10.7427 19.8847C11.1311 19.7583 11.5541 19.7671 11.9364 19.9093C12.3186 20.0516 12.6353 20.3181 12.83 20.6615C13.0247 21.0048 13.0848 21.4027 12.9995 21.7842C12.9143 22.1657 12.6892 22.5061 12.3645 22.7447C12.062 22.9678 11.69 23.0889 11.307 23.0887Z" fill="#007AFF"/>
<path d="M0 12.5002C0 12.8449 0.144139 13.1754 0.400709 13.4192C0.657279 13.6629 1.00526 13.7998 1.36811 13.7998H14.9059C15.1808 14.4646 15.6602 15.0353 16.2814 15.4376C16.9027 15.8398 17.6371 16.055 18.389 16.055C19.1408 16.055 19.8752 15.8398 20.4965 15.4376C21.1178 15.0353 21.5971 14.4646 21.872 13.7998H25.6319C25.9947 13.7998 26.3427 13.6629 26.5993 13.4192C26.8559 13.1754 27 12.8449 27 12.5002C27 12.1555 26.8559 11.8249 26.5993 11.5811C26.3427 11.3374 25.9947 11.2005 25.6319 11.2005H21.872C21.5971 10.5357 21.1178 9.96496 20.4965 9.56271C19.8752 9.16046 19.1408 8.94531 18.389 8.94531C17.6371 8.94531 16.9027 9.16046 16.2814 9.56271C15.6602 9.96496 15.1808 10.5357 14.9059 11.2005H1.36811C1.00526 11.2005 0.657279 11.3374 0.400709 11.5811C0.144139 11.8249 0 12.1555 0 12.5002ZM17.3315 13.7998C17.0089 13.562 16.7855 13.2231 16.7011 12.8435C16.6168 12.4639 16.677 12.0682 16.871 11.7268C17.0649 11.3854 17.3801 11.1204 17.7604 10.979C18.1407 10.8377 18.5615 10.8291 18.9479 10.9548C19.3342 11.0805 19.6611 11.3323 19.8704 11.6655C20.0796 11.9987 20.1577 12.3916 20.0906 12.7743C20.0235 13.157 19.8157 13.5046 19.5041 13.7554C19.1925 14.0062 18.7974 14.1439 18.389 14.1439C18.0061 14.1437 17.6341 14.0227 17.3315 13.7998Z" fill="#007AFF"/>
</svg>
